<?xml version="1.0" encoding="utf-8"?>
<svg version="1.1" id="Layer_1" xmlns="http://www.w3.org/2000/svg" xmlns:xlink="http://www.w3.org/1999/xlink" x="0px" y="0px"
	 viewBox="0 0 512 512" style="enable-background:new 0 0 512 512;" xml:space="preserve">
<style type="text/css">
	.st0{fill:#E64A19;}
	.st1{fill:#BF360C;}
	.st2{fill:#FFE0B2;}
</style>
<g>
	<path class="st0" d="M512,207.24c0,136.53-95.09,256-256,256S0,343.77,0,207.24C0,45.11,156.04,48.77,158.48,48.77
		c17.07,0,19.5,60.95,2.44,60.95c-14.63,0-87.77,10.97-87.77,97.52c0,108.5,106.06,170.67,182.86,170.67s182.86-62.17,182.86-170.67
		c0-85.33-70.7-97.52-86.55-97.52c-2.44,0-3.66,0-6.1,0c-15.85,0-57.3,1.22-81.68,23.16c-13.41,12.19-19.5,28.04-19.5,49.98
		c0,15.85,4.88,29.26,12.19,40.23c-4.88,12.19-23.16,28.04-36.57,34.13c0,0-24.38-21.94-24.38-74.36
		c-1.22-132.88,152.38-134.1,157.26-134.1C355.96,48.77,512,45.11,512,207.24z M393.75,292.57c-1.22,0-57.3-8.53-101.18-35.35
		c-9.75,13.41-23.16,24.38-36.57,34.13c49.98,39.01,125.56,48.76,130.44,49.98c1.22,0,2.44,0,3.66,0c12.19,0,21.94-8.53,24.38-20.72
		C415.7,307.2,407.16,295.01,393.75,292.57z"/>
	<path class="st1" d="M352.3,109.72L352.3,109.72c15.85,0,86.55,12.19,86.55,97.52c0,108.5-106.06,170.67-182.86,170.67
		c-36.57,0-79.24-13.41-113.37-40.23c47.54-9.75,174.32-46.32,174.32-154.82c0-28.04-7.31-51.2-18.29-68.27
		c-17.07,0-40.23,20.72-42.67,26.82c8.53,10.97,12.19,24.38,12.19,42.67c0,87.77-148.72,109.71-149.94,109.71
		c-6.1,1.22-10.97,3.66-14.63,7.31c-18.29-26.82-30.48-57.3-30.48-93.87c0-86.55,73.14-97.52,87.77-97.52c2.44,0,4.88,0,6.1,0
		c9.75,0,26.82,0,45.1,4.88c0,0,0-1.22,1.22-1.22c2.44-3.66,20.72-28.04,40.23-37.79c1.22,0,1.22-1.22,1.22-1.22
		c-35.35-19.5-74.36-24.38-90.21-25.6c-23.16,1.22-128,13.41-128,158.48c0,69.49,58.51,207.24,219.43,207.24
		s207.24-134.1,207.24-195.05C463.24,119.47,381.56,109.72,352.3,109.72z"/>
	<path class="st2" d="M463.24,292.57c7.31,0,12.19,4.88,12.19,12.19c0,7.31-4.88,12.19-12.19,12.19s-12.19-4.88-12.19-12.19
		C451.05,297.45,455.92,292.57,463.24,292.57z M365.71,377.91c7.31,0,12.19,4.88,12.19,12.19c0,7.31-4.88,12.19-12.19,12.19
		c-7.31,0-12.19-4.88-12.19-12.19C353.52,382.78,358.4,377.91,365.71,377.91z M304.76,402.29c7.31,0,12.19,4.88,12.19,12.19
		s-4.88,12.19-12.19,12.19s-12.19-4.88-12.19-12.19S297.45,402.29,304.76,402.29z M170.67,377.91c7.31,0,12.19,4.88,12.19,12.19
		c0,7.31-4.88,12.19-12.19,12.19c-7.31,0-12.19-4.88-12.19-12.19C158.48,382.78,163.35,377.91,170.67,377.91z M121.9,377.91
		c7.31,0,12.19,4.88,12.19,12.19c0,7.31-4.88,12.19-12.19,12.19s-12.19-4.88-12.19-12.19C109.71,382.78,114.59,377.91,121.9,377.91z
		 M52.42,209.68c7.31,0,12.19,4.88,12.19,12.19c0,7.31-4.88,12.19-12.19,12.19s-12.19-4.88-12.19-12.19
		C40.23,214.56,46.32,209.68,52.42,209.68z M48.76,268.19c7.31,0,12.19,4.88,12.19,12.19c0,7.31-4.88,12.19-12.19,12.19
		s-12.19-4.88-12.19-12.19C36.57,273.07,41.45,268.19,48.76,268.19z M463.24,243.81c7.31,0,12.19,4.88,12.19,12.19
		s-4.88,12.19-12.19,12.19s-12.19-4.88-12.19-12.19S455.92,243.81,463.24,243.81z M483.96,202.37c7.31,0,12.19,4.88,12.19,12.19
		c0,7.31-4.88,12.19-12.19,12.19c-7.31,0-12.19-4.88-12.19-12.19C471.77,207.24,476.65,202.37,483.96,202.37z"/>
</g>
</svg>
